HIERARCHY
ROOT Pelvis
{
	OFFSET 0.000000 0.000000 0.000000
	CHANNELS 6 Xposition Yposition Zposition Xrotation Yrotation Zrotation
	JOINT LeftUpLeg_virtual
	{
		OFFSET 0.000000 0.000000 0.000000
		CHANNELS 3 Xrotation Yrotation Zrotation
		JOINT LeftUpLeg
		{
			OFFSET 18.735201 -5.666702 -4.541200
			CHANNELS 3 Xrotation Yrotation Zrotation
			JOINT LeftLeg
			{
				OFFSET -0.021200 -31.938179 0.493100
				CHANNELS 3 Xrotation Yrotation Zrotation
				JOINT LeftFoot
				{
					OFFSET 0.021200 -31.938179 -4.336299
					CHANNELS 3 Xrotation Yrotation Zrotation
					JOINT LeftToeBase
					{
						OFFSET 0.943001 -26.722000 15.023500
						CHANNELS 3 Xrotation Yrotation Zrotation
						End Site
						{
							OFFSET 0 0 0
						}
					}
				}
			}
		}
	}
	JOINT RightUpLeg_virtual
	{
		OFFSET 0.000000 0.000000 0.000000
		CHANNELS 3 Xrotation Yrotation Zrotation
		JOINT RightUpLeg
		{
			OFFSET -18.735201 -5.666702 -4.541200
			CHANNELS 3 Xrotation Yrotation Zrotation
			JOINT RightLeg
			{
				OFFSET 0.018946 -31.938133 0.493100
				CHANNELS 3 Xrotation Yrotation Zrotation
				JOINT RightFoot
				{
					OFFSET -0.018946 -31.938126 -4.336299
					CHANNELS 3 Xrotation Yrotation Zrotation
					JOINT RightToeBase
					{
						OFFSET -0.943001 -26.722004 15.023500
						CHANNELS 3 Xrotation Yrotation Zrotation
						End Site
						{
							OFFSET 0 0 0
						}
					}
				}
			}
		}
	}
	JOINT Hips_virtual
	{
		OFFSET 0.000000 0.000000 0.000000
		CHANNELS 3 Xrotation Yrotation Zrotation
		JOINT Hips
		{
			OFFSET -0.000000 -0.000000 -0.000000
			CHANNELS 3 Xrotation Yrotation Zrotation
			JOINT Spine
			{
				OFFSET 0.000000 10.199997 -0.299500
				CHANNELS 3 Xrotation Yrotation Zrotation
				JOINT Spine1
				{
					OFFSET 0.000000 11.900002 -1.516600
					CHANNELS 3 Xrotation Yrotation Zrotation
					JOINT Spine2
					{
						OFFSET 0.000000 13.600006 -2.842500
						CHANNELS 3 Xrotation Yrotation Zrotation
						JOINT Neck_virtual
						{
							OFFSET 0.000000 0.000000 0.000000
							CHANNELS 3 Xrotation Yrotation Zrotation
							JOINT Neck
							{
								OFFSET 0.000000 9.624100 -2.890100
								CHANNELS 3 Xrotation Yrotation Zrotation
								JOINT Head
								{
									OFFSET 0.000000 14.068802 -1.351900
									CHANNELS 3 Xrotation Yrotation Zrotation
									End Site
									{
										OFFSET 0 0 0
									}
								}
							}
						}
						JOINT LeftShoulder_virtual
						{
							OFFSET 0.000000 0.000000 0.000000
							CHANNELS 3 Xrotation Yrotation Zrotation
							JOINT LeftShoulder
							{
								OFFSET 15.263000 10.923401 -0.547700
								CHANNELS 3 Xrotation Yrotation Zrotation
								JOINT LeftArm
								{
									OFFSET 25.438599 -2.830597 -13.032500
									CHANNELS 3 Xrotation Yrotation Zrotation
									JOINT LeftForeArm
									{
										OFFSET 29.960503 0.000000 0.000000
										CHANNELS 3 Xrotation Yrotation Zrotation
										JOINT LeftHand
										{
											OFFSET 27.849251 0.000000 0.000000
											CHANNELS 3 Xrotation Yrotation Zrotation
											End Site
											{
												OFFSET 0 0 0
											}
										}
									}
								}
							}
						}
						JOINT RightShoulder_virtual
						{
							OFFSET 0.000000 0.000000 0.000000
							CHANNELS 3 Xrotation Yrotation Zrotation
							JOINT RightShoulder
							{
								OFFSET -15.263000 10.923401 -0.547700
								CHANNELS 3 Xrotation Yrotation Zrotation
								JOINT RightArm
								{
									OFFSET -25.438599 -2.830597 -13.032500
									CHANNELS 3 Xrotation Yrotation Zrotation
									JOINT RightForeArm
									{
										OFFSET -29.960503 0.000000 0.000000
										CHANNELS 3 Xrotation Yrotation Zrotation
										JOINT RightHand
										{
											OFFSET -27.849251 0.000000 0.000000
											CHANNELS 3 Xrotation Yrotation Zrotation
											End Site
											{
												OFFSET 0 0 0
											}
										}
									}
								}
							}
						}
					}
				}
			}
		}
	}
}
MOTION
Frames: 11
Frame Time: 0.03333333
-2.278407 75.183189 24.967388 0.000000 0.000000 0.000000 -0.736235 -21.407256 -6.948669 -43.998900 7.193637 10.704656 68.955835 -22.573196 1.006656 8.319794 -24.811210 -24.751024 0.000000 0.000000 0.000000 12.710713 -11.277554 6.164621 -15.139405 -10.260329 -10.194825 31.315144 7.855042 -10.344024 -19.144098 9.013752 -0.744439 0.000000 0.000000 0.000000 28.689100 47.553321 -13.804652 -20.166181 3.180124 -7.792670 7.477781 20.041483 4.047835 4.904607 10.901682 2.056099 0.000000 0.000000 0.000000 8.409808 6.700845 -1.411513 0.759590 -1.159101 1.032164 0.000000 0.000000 0.000000 6.336468 14.791065 -1.939297 -5.520768 5.821836 9.266273 40.045505 -5.335722 -11.537983 30.510482 -35.022283 16.258273 0.000000 0.000000 0.000000 3.399098 11.300890 -2.123123 -7.624544 19.920597 -2.762789 -58.165215 -2.998234 -2.185369 -17.705527 -10.167665 -3.798766 0.000000 0.000000 0.000000 
-2.136652 75.378517 24.874111 0.000000 0.000000 0.000000 -1.056235 -21.516930 -7.028031 -44.283941 7.118717 10.644011 68.741790 -22.269463 1.056020 8.318055 -24.541350 -24.332648 0.000000 0.000000 0.000000 12.690038 -10.312024 5.730964 -14.946957 -9.934471 -10.459433 31.349762 8.096963 -10.328607 -19.172517 9.223743 -0.545115 0.000000 0.000000 0.000000 28.303061 47.041675 -13.411309 -20.009044 2.743465 -7.774625 7.522637 19.748553 3.888457 4.916109 10.741329 1.962405 0.000000 0.000000 0.000000 8.388774 6.595910 -1.443456 0.739889 -1.181008 1.005931 0.000000 0.000000 0.000000 6.410688 14.667169 -1.998720 -5.258263 6.089220 8.767308 40.937190 -3.607083 -11.463673 30.062736 -33.127637 15.894940 0.000000 0.000000 0.000000 3.370800 11.190478 -2.270409 -7.422455 19.953812 -3.297406 -58.145667 -3.115398 -0.575313 -17.678743 -9.060684 -3.164714 0.000000 0.000000 0.000000 
-1.998814 75.613884 24.779827 0.000000 0.000000 0.000000 -1.387882 -21.694923 -7.095855 -44.571588 7.019130 10.587486 68.485542 -21.931526 1.098660 8.289952 -24.226293 -23.883858 0.000000 0.000000 0.000000 12.709596 -9.258567 5.272381 -14.683428 -9.586914 -10.733426 31.445166 8.361841 -10.299409 -19.165941 9.448533 -0.299099 0.000000 0.000000 0.000000 27.819543 46.388702 -12.931083 -19.787092 2.104301 -7.728421 7.549020 19.439217 3.709707 4.915294 10.574238 1.855008 0.000000 0.000000 0.000000 8.362397 6.488695 -1.491994 0.714757 -1.202842 0.974485 0.000000 0.000000 0.000000 6.482265 14.540720 -2.061927 -4.973172 6.365559 8.251913 42.017821 -1.720608 -11.400948 29.671472 -31.066111 15.580435 0.000000 0.000000 0.000000 3.365848 11.074768 -2.428363 -7.180301 19.977928 -3.825591 -58.132881 -2.994276 1.233057 -17.667015 -7.605773 -2.458892 0.000000 0.000000 0.000000 
-1.876059 75.890633 24.675188 0.000000 0.000000 0.000000 -1.711959 -21.957465 -7.143420 -44.842569 6.891886 10.540767 68.189077 -21.556106 1.131508 8.237901 -23.861831 -23.407200 0.000000 0.000000 0.000000 12.776378 -8.149098 4.800724 -14.349170 -9.229141 -11.011324 31.607185 8.647844 -10.256859 -19.121067 9.686475 -0.006755 0.000000 0.000000 0.000000 27.260880 45.595409 -12.375934 -19.482558 1.289134 -7.646651 7.567851 19.114208 3.506292 4.907861 10.400064 1.731403 0.000000 0.000000 0.000000 8.334231 6.378644 -1.565205 0.684848 -1.224198 0.933015 0.000000 0.000000 0.000000 6.551884 14.413098 -2.125429 -4.667748 6.653726 7.731729 43.275676 0.303808 -11.374029 29.342476 -28.861306 15.319669 0.000000 0.000000 0.000000 3.391777 10.950288 -2.592705 -6.897731 19.972308 -4.326083 -58.068991 -2.610706 3.203089 -17.651686 -5.779686 -1.698171 0.000000 0.000000 0.000000 
-1.776941 76.206772 24.546227 0.000000 0.000000 0.000000 -2.009054 -22.320469 -7.163869 -45.077285 6.734822 10.507852 67.853107 -21.139236 1.152440 8.163148 -23.443292 -22.903156 0.000000 0.000000 0.000000 12.894577 -7.015432 4.324388 -13.946696 -8.871816 -11.290530 31.840761 8.954346 -10.202183 -19.034747 9.937685 0.330773 0.000000 0.000000 0.000000 26.647170 44.662009 -11.757586 -19.086023 0.326994 -7.525389 7.586867 18.774629 3.275760 4.897677 10.218929 1.590403 0.000000 0.000000 0.000000 8.309974 6.267429 -1.666818 0.652356 -1.243390 0.879220 0.000000 0.000000 0.000000 6.618202 14.284964 -2.185902 -4.345571 6.954533 7.216000 44.693927 2.426113 -11.413536 29.079961 -26.553317 15.114633 0.000000 0.000000 0.000000 3.453465 10.814691 -2.756999 -6.578333 19.920498 -4.769241 -57.892519 -1.940650 5.304048 -17.610758 -3.555600 -0.897425 0.000000 0.000000 0.000000 
-1.705243 76.556068 24.376074 0.000000 0.000000 0.000000 -2.260989 -22.796743 -7.152423 -45.257134 6.547035 10.490831 67.475855 -20.676624 1.159960 8.064594 -22.965517 -22.370767 0.000000 0.000000 0.000000 13.064854 -5.888818 3.848128 -13.481427 -8.524445 -11.571494 32.149489 9.281210 -10.137360 -18.904191 10.203418 0.711073 0.000000 0.000000 0.000000 25.995338 43.590233 -11.087818 -18.598904 -0.749914 -7.364082 7.609899 18.422320 3.018883 4.886502 10.031671 1.432372 0.000000 0.000000 0.000000 8.297263 6.159547 -1.793889 0.620980 -1.257238 0.814618 0.000000 0.000000 0.000000 6.678927 14.156545 -2.240753 -4.010678 7.267311 6.710449 46.252241 4.587822 -11.555279 28.886168 -24.196357 14.963399 0.000000 0.000000 0.000000 3.553742 10.667279 -2.912888 -6.228659 19.811916 -5.117470 -57.540533 -0.959839 7.509469 -17.519545 -0.905906 -0.070867 0.000000 0.000000 0.000000 
-1.659104 76.928459 24.147877 0.000000 0.000000 0.000000 -2.452311 -23.393133 -7.105985 -45.366181 6.329031 10.490354 67.052520 -20.164102 1.152791 7.938178 -22.423132 -21.808741 0.000000 0.000000 0.000000 13.284114 -4.799914 3.373698 -12.962097 -8.195419 -11.857243 32.535183 9.627692 -10.064660 -18.727149 10.484749 1.130502 0.000000 0.000000 0.000000 25.318668 42.384548 -10.378301 -18.033376 -1.908550 -7.164580 7.637126 18.059749 2.739297 4.874306 9.839786 1.259127 0.000000 0.000000 0.000000 8.304071 6.061827 -1.936122 0.595103 -1.261408 0.744848 0.000000 0.000000 0.000000 6.731787 14.027782 -2.288450 -3.666861 7.590264 6.216920 47.926939 6.716737 -11.836078 28.760895 -21.855007 14.860367 0.000000 0.000000 0.000000 3.694177 10.509020 -3.050684 -5.856757 19.642113 -5.327636 -56.949554 0.355837 9.793678 -17.350921 2.193307 0.765861 0.000000 0.000000 0.000000 
-1.631774 77.312073 23.848055 0.000000 0.000000 0.000000 -2.571683 -24.108353 -7.022391 -45.392945 6.082667 10.506503 66.575602 -19.598222 1.129606 7.777028 -21.811162 -21.216571 0.000000 0.000000 0.000000 13.545833 -3.778584 2.900984 -12.400582 -7.892136 -12.152451 32.998007 9.991435 -9.985825 -18.501995 10.781130 1.584948 0.000000 0.000000 0.000000 24.626834 41.051742 -9.639897 -17.409203 -3.120852 -6.929692 7.666227 17.689478 2.442482 4.860051 9.645130 1.073494 0.000000 0.000000 0.000000 8.336109 5.981855 -2.077604 0.578384 -1.251294 0.678589 0.000000 0.000000 0.000000 6.775131 13.898315 -2.328510 -3.317298 7.920542 5.733977 49.688909 8.733948 -12.286937 28.700889 -19.600126 14.797957 0.000000 0.000000 0.000000 3.875436 10.342197 -3.160383 -5.470841 19.411736 -5.355951 -56.058101 2.029287 12.126214 -17.076149 5.756266 1.592836 0.000000 0.000000 0.000000 
-1.613800 77.696198 23.468714 0.000000 0.000000 0.000000 -2.612879 -24.932065 -6.899725 -45.331829 5.810852 10.539708 66.035799 -18.976914 1.089078 7.572188 -21.125946 -20.595259 0.000000 0.000000 0.000000 13.840715 -2.853374 2.429203 -11.811432 -7.621128 -12.462447 33.536707 10.367940 -9.901023 -18.227786 11.089203 2.071250 0.000000 0.000000 0.000000 23.926301 39.599142 -8.881856 -16.748165 -4.370124 -6.661607 7.693991 17.313531 2.134337 4.842643 9.449495 0.878605 0.000000 0.000000 0.000000 8.394163 5.925908 -2.200746 0.572220 -1.223127 0.625264 0.000000 0.000000 0.000000 6.808170 13.767392 -2.361263 -2.964561 8.254185 5.258317 51.499934 10.562173 -12.925346 28.699157 -17.505263 14.769302 0.000000 0.000000 0.000000 4.096999 10.169832 -3.233054 -5.078449 19.124791 -5.164687 -54.812418 4.079835 14.464746 -16.666831 9.780477 2.382725 0.000000 0.000000 0.000000 
-1.596042 78.073967 23.008314 0.000000 0.000000 0.000000 -2.575073 -25.845992 -6.736029 -45.183771 5.517185 10.591281 65.423411 -18.299984 1.030210 7.313713 -20.366087 -19.947562 0.000000 0.000000 0.000000 14.157223 -2.050653 1.957912 -11.211683 -7.388055 -12.792328 34.149057 10.750706 -9.807797 -17.904359 11.402244 2.589057 0.000000 0.000000 0.000000 23.221216 38.033020 -8.111551 -16.068058 -5.653863 -6.360678 7.717882 16.933145 1.819798 4.821758 9.254336 0.677162 0.000000 0.000000 0.000000 8.472578 5.897304 -2.291207 0.574726 -1.174801 0.592298 0.000000 0.000000 0.000000 6.830891 13.633798 -2.387526 -2.610963 8.586206 4.786361 53.309183 12.134237 -13.749576 28.744472 -15.643264 14.770918 0.000000 0.000000 0.000000 4.356447 9.995194 -3.262300 -4.686132 18.787282 -4.729124 -53.174320 6.518570 16.748459 -16.097636 14.239714 3.098403 0.000000 0.000000 0.000000 
-1.572592 78.443642 22.470551 0.000000 0.000000 0.000000 -2.462346 -26.826507 -6.529397 -44.955766 5.205497 10.663502 64.729641 -17.569352 0.952750 6.991816 -19.533069 -19.277630 0.000000 0.000000 0.000000 14.481499 -1.394034 1.487726 -10.621595 -7.197576 -13.146399 34.832022 11.131956 -9.700172 -17.532612 11.710142 3.142737 0.000000 0.000000 0.000000 22.514195 36.358036 -7.334736 -15.378767 -6.980652 -6.024925 7.737134 16.548951 1.501923 4.798256 9.060708 0.470942 0.000000 0.000000 0.000000 8.559668 5.895863 -2.341946 0.580703 -1.106044 0.582924 0.000000 0.000000 0.000000 6.843664 13.495838 -2.408360 -2.259136 8.910742 4.315394 55.052346 13.399897 -14.737429 28.821411 -14.082887 14.804242 0.000000 0.000000 0.000000 4.648830 9.821506 -3.245403 -4.299478 18.406568 -4.042712 -51.128375 9.340967 18.894545 -15.348731 19.078720 3.692408 0.000000 0.000000 0.000000 
